<svg width="36" height="36" viewBox="0 0 36 36" fill="none" xmlns="http://www.w3.org/2000/svg">
<g clip-path="url(#clip0_520_1116)">
<g clip-path="url(#clip1_520_1116)">
<g clip-path="url(#clip2_520_1116)">
<path d="M18.1899 35.5C27.8549 35.5 35.6899 27.665 35.6899 18C35.6899 8.33502 27.8549 0.5 18.1899 0.5C8.52496 0.5 0.689941 8.33502 0.689941 18C0.689941 27.665 8.52496 35.5 18.1899 35.5Z" fill="#6F6F6F"/>
<path d="M18.9476 18.9112V24.9681H16.0758V18.9112H13.6899V16.4552H16.0758V15.5617C16.0758 12.2443 17.5062 10.5 20.5327 10.5C21.4605 10.5 21.6924 10.6445 22.2005 10.7622V13.1914C21.6317 13.0951 21.4715 13.0415 20.8806 13.0415C20.1792 13.0415 19.8036 13.2342 19.4612 13.6141C19.1188 13.994 18.9476 14.6521 18.9476 15.5938V16.4606H22.2005L21.3279 18.9165H18.9476V18.9112Z" fill="white"/>
</g>
</g>
</g>
<defs>
<clipPath id="clip0_520_1116">
<rect width="35" height="35" fill="white" transform="translate(0.689941 0.5)"/>
</clipPath>
<clipPath id="clip1_520_1116">
<rect width="35" height="35" fill="white" transform="translate(0.689941 0.5)"/>
</clipPath>
<clipPath id="clip2_520_1116">
<rect width="35" height="35" fill="white" transform="translate(0.689941 0.5)"/>
</clipPath>
</defs>
</svg>
