<svg width="36" height="36" viewBox="0 0 36 36" fill="none" xmlns="http://www.w3.org/2000/svg">
<g clip-path="url(#clip0_520_1109)">
<g clip-path="url(#clip1_520_1109)">
<g clip-path="url(#clip2_520_1109)">
<path d="M18.1899 35.5C27.8549 35.5 35.6899 27.665 35.6899 18C35.6899 8.33502 27.8549 0.5 18.1899 0.5C8.52496 0.5 0.689941 8.33502 0.689941 18C0.689941 27.665 8.52496 35.5 18.1899 35.5Z" fill="#6F6F6F"/>
<path d="M23.1827 25.5H13.1971C11.8172 25.5 10.6899 24.3727 10.6899 22.9928V13.0072C10.6899 11.6273 11.8172 10.5 13.1971 10.5H23.1827C24.5626 10.5 25.6899 11.6273 25.6899 13.0072V22.9928C25.6899 24.3789 24.5687 25.5 23.1827 25.5Z" fill="white"/>
<path d="M18.1964 21.8565C17.1676 21.8565 16.2005 21.456 15.4736 20.7291C14.7467 20.0022 14.3462 19.0351 14.3462 18.0064C14.3462 16.9776 14.7467 16.0105 15.4736 15.2836C16.2005 14.5567 17.1676 14.1562 18.1964 14.1562C19.2251 14.1562 20.1922 14.5567 20.9191 15.2836C21.646 16.0105 22.0465 16.9776 22.0465 18.0064C22.0465 19.0351 21.646 20.0022 20.9191 20.7291C20.1861 21.456 19.2251 21.8565 18.1964 21.8565ZM18.1964 14.9756C16.5269 14.9756 15.1656 16.3308 15.1656 18.0064C15.1656 19.6758 16.5208 21.0372 18.1964 21.0372C19.8658 21.0372 21.2272 19.6819 21.2272 18.0064C21.221 16.3369 19.8658 14.9756 18.1964 14.9756Z" fill="#6F6F6F"/>
<path d="M22.7885 14.0254C23.1968 14.0254 23.5278 13.6944 23.5278 13.2861C23.5278 12.8778 23.1968 12.5469 22.7885 12.5469C22.3802 12.5469 22.0493 12.8778 22.0493 13.2861C22.0493 13.6944 22.3802 14.0254 22.7885 14.0254Z" fill="#6F6F6F"/>
</g>
</g>
</g>
<defs>
<clipPath id="clip0_520_1109">
<rect width="35" height="35" fill="white" transform="translate(0.689941 0.5)"/>
</clipPath>
<clipPath id="clip1_520_1109">
<rect width="35" height="35" fill="white" transform="translate(0.689941 0.5)"/>
</clipPath>
<clipPath id="clip2_520_1109">
<rect width="35" height="35" fill="white" transform="translate(0.689941 0.5)"/>
</clipPath>
</defs>
</svg>
