<svg width="70" height="70" viewBox="0 0 70 70" fill="none" xmlns="http://www.w3.org/2000/svg">
<path d="M58.3335 11.6666H11.6668C8.44975 11.6666 5.8335 14.2829 5.8335 17.5V52.5C5.8335 55.717 8.44975 58.3333 11.6668 58.3333H58.3335C61.5506 58.3333 64.1668 55.717 64.1668 52.5V17.5C64.1668 14.2829 61.5506 11.6666 58.3335 11.6666ZM58.3335 17.5V18.9904L35.0002 37.1408L11.6668 18.9933V17.5H58.3335ZM11.6668 52.5V26.3783L33.2093 43.1345C33.7201 43.5357 34.3507 43.7538 35.0002 43.7538C35.6496 43.7538 36.2803 43.5357 36.791 43.1345L58.3335 26.3783L58.3393 52.5H11.6668Z" fill="#5D8554"/>
</svg>
