<svg width="101" height="101" viewBox="0 0 101 101" fill="none" xmlns="http://www.w3.org/2000/svg">
<path fill-rule="evenodd" clip-rule="evenodd" d="M48.9496 10.2867C49.9103 9.73775 51.0897 9.73775 52.0504 10.2867L95.8004 35.2867C96.7741 35.8431 97.375 36.8786 97.375 38C97.375 39.1214 96.7741 40.1569 95.8004 40.7133L52.0504 65.7133C51.0897 66.2622 49.9103 66.2622 48.9496 65.7133L5.19957 40.7133C4.22589 40.1569 3.625 39.1214 3.625 38C3.625 36.8786 4.22589 35.8431 5.19957 35.2867L48.9496 10.2867ZM13.0486 38L50.5 59.4008L87.9514 38L50.5 16.5992L13.0486 38Z" fill="black"/>
<path fill-rule="evenodd" clip-rule="evenodd" d="M94.25 34.875C95.9759 34.875 97.375 36.2741 97.375 38V72.375C97.375 74.1009 95.9759 75.5 94.25 75.5C92.5241 75.5 91.125 74.1009 91.125 72.375V38C91.125 36.2741 92.5241 34.875 94.25 34.875ZM22.375 44.25C24.1009 44.25 25.5 45.6491 25.5 47.375V70.5362L47.375 82.689V63C47.375 61.2741 48.7741 59.875 50.5 59.875C52.2259 59.875 53.625 61.2741 53.625 63V82.689L75.5 70.5362V47.375C75.5 45.6491 76.8991 44.25 78.625 44.25C80.3509 44.25 81.75 45.6491 81.75 47.375V72.375C81.75 73.5099 81.1347 74.5556 80.1426 75.1067L52.0673 90.7041C51.6066 90.9718 51.0712 91.125 50.5 91.125C49.9288 91.125 49.3934 90.9718 48.9327 90.7041L20.8574 75.1067C19.8653 74.5556 19.25 73.5099 19.25 72.375V47.375C19.25 45.6491 20.6491 44.25 22.375 44.25Z" fill="black"/>
</svg>
