<svg width="100" height="101" viewBox="0 0 100 101" fill="none" xmlns="http://www.w3.org/2000/svg">
<path d="M81.25 6.75H18.75C17.0215 6.75 15.625 8.14648 15.625 9.875V91.125C15.625 92.8535 17.0215 94.25 18.75 94.25H81.25C82.9785 94.25 84.375 92.8535 84.375 91.125V9.875C84.375 8.14648 82.9785 6.75 81.25 6.75ZM55.8594 13.7812H65.2344V34.2793L60.6934 30.9688L55.8594 34.4258V13.7812ZM77.3438 87.2188H22.6562V13.7812H50V42.7754C50 43.0977 50.0977 43.4199 50.293 43.6836C50.4115 43.8512 50.5621 43.9936 50.7361 44.1026C50.9101 44.2116 51.1039 44.2851 51.3064 44.3187C51.509 44.3523 51.7161 44.3454 51.916 44.2984C52.1158 44.2514 52.3044 44.1652 52.4707 44.0449L60.6543 38.1953L68.6035 43.9961C68.8672 44.1914 69.1895 44.2988 69.5215 44.2988C70.3809 44.2988 71.084 43.5957 71.084 42.7363V13.7812H77.334V87.2188H77.3438Z" fill="black"/>
</svg>
